<svg 
 xmlns="http://www.w3.org/2000/svg"
 xmlns:xlink="http://www.w3.org/1999/xlink"
 width="186px" height="50px">
<path fill-rule="evenodd"  fill="rgb(46, 204, 113)"
 d="M-0.000,-0.000 L186.000,-0.000 L186.000,50.000 L-0.000,50.000 L-0.000,-0.000 Z"/>
<path fill-rule="evenodd"  fill="rgb(255, 255, 255)"
 d="M165.000,30.000 C165.000,30.000 165.500,24.750 167.000,25.000 C167.000,25.000 167.437,30.375 165.000,30.000 ZM162.000,32.000 C162.000,32.000 158.938,25.188 155.000,24.000 L143.000,36.000 L140.000,33.000 L152.000,21.000 C152.000,21.000 151.000,17.875 144.000,14.000 C144.000,14.000 150.938,11.062 156.000,17.000 L159.000,15.000 L161.000,18.000 L159.000,20.000 C159.000,20.000 166.982,26.839 162.000,32.000 ZM154.000,28.000 C157.938,28.250 159.000,31.000 159.000,31.000 C156.437,32.937 154.000,28.000 154.000,28.000 ZM159.000,33.000 C159.563,35.875 153.000,36.000 153.000,36.000 C153.562,32.563 159.000,33.000 159.000,33.000 Z"/>
<path fill-rule="evenodd"  fill="rgb(255, 255, 255)"
 d="M136.629,18.721 L126.390,18.721 L125.846,22.145 L135.125,22.145 L134.325,27.233 L125.046,27.233 L124.470,30.880 L134.869,30.880 L134.069,36.000 L117.750,36.000 L121.302,13.602 L137.429,13.602 L136.629,18.721 ZM108.597,36.000 L101.142,23.297 C101.142,24.353 100.982,25.569 100.822,26.625 L99.286,36.000 L93.367,36.000 L96.918,13.602 L101.846,13.602 L109.333,26.337 C109.365,25.345 109.525,23.841 109.717,22.721 L111.157,13.602 L117.077,13.602 L113.525,36.000 L108.597,36.000 ZM83.223,36.000 L86.775,13.602 L92.694,13.602 L89.143,36.000 L83.223,36.000 ZM73.078,36.000 L74.966,24.129 L69.462,31.008 L65.430,31.008 L62.039,24.033 L60.087,36.000 L54.167,36.000 L57.719,13.602 L63.095,13.602 L68.214,24.097 L76.566,13.602 L82.549,13.602 L78.997,36.000 L73.078,36.000 ZM45.014,36.000 L37.559,23.297 C37.559,24.353 37.399,25.569 37.239,26.625 L35.703,36.000 L29.784,36.000 L33.335,13.602 L38.263,13.602 L45.750,26.337 C45.782,25.345 45.942,23.841 46.134,22.721 L47.574,13.602 L53.494,13.602 L49.942,36.000 L45.014,36.000 ZM19.640,36.000 L23.192,13.602 L29.111,13.602 L25.560,36.000 L19.640,36.000 Z"/>
</svg>